# xmcd
#
# Track frame offsets:
#	225
#	12693
#	43851
#	65618
#	83269
#	103686
#	123625
#	137014
#	157832
#	180838
#	201884
#	219311
#
# Disc length: 3237 seconds
#
# Revision: 0
# Processed by: cddbd v1.5PL3 Copyright (c) Steve Scherf et al.
# Submitted via: dBpowerAMP V4.0
#
DISCID=9e0ca20c
DTITLE=Paul Cox - Ain't Nothin' Doin'
DYEAR=1900
DGENRE=Blues
TTITLE0=That's The Way I Feel
TTITLE1=Is Anybody There
TTITLE2=Where Can I Find Love
TTITLE3=This Love Is Mine
TTITLE4=Ain't Nothin' Doin' (I Can't Do)
TTITLE5=Damn Your Eyes
TTITLE6=Pouring Water On A Drowning Man
TTITLE7=Such A Fool
TTITLE8=I Adore You
TTITLE9=Silence And Tears
TTITLE10=I'm Gonna Win
TTITLE11=I Can Take You To Heaven
EXTD=Ain't Nothin' Doin' by Paul Cox on Note Records
EXTT0=
EXTT1=
EXTT2=
EXTT3=
EXTT4=
EXTT5=
EXTT6=
EXTT7=
EXTT8=
EXTT9=
EXTT10=
EXTT11=
PLAYORDER=
